<?xml version="1.0" encoding="UTF-8" standalone="no"?>
<!-- Created with Inkscape (http://www.inkscape.org/) -->

<svg
   xmlns:dc="http://purl.org/dc/elements/1.1/"
   xmlns:cc="http://creativecommons.org/ns#"
   xmlns:rdf="http://www.w3.org/1999/02/22-rdf-syntax-ns#"
   xmlns:svg="http://www.w3.org/2000/svg"
   xmlns="http://www.w3.org/2000/svg"
   xmlns:xlink="http://www.w3.org/1999/xlink"
   xmlns:sodipodi="http://sodipodi.sourceforge.net/DTD/sodipodi-0.dtd"
   xmlns:inkscape="http://www.inkscape.org/namespaces/inkscape"
   width="512"
   height="512"
   id="svg2"
   version="1.1"
   inkscape:version="0.47 r22583"
   sodipodi:docname="fuel-qty.svg"
   inkscape:output_extension="org.inkscape.output.svg.inkscape"
   inkscape:export-filename="/usr/share/FlightGear/Aircraft/BN-2/Instruments/fuel-qty.png"
   inkscape:export-xdpi="90"
   inkscape:export-ydpi="90">
  <defs
     id="defs4">
    <inkscape:perspective
       sodipodi:type="inkscape:persp3d"
       inkscape:vp_x="0 : 526.18109 : 1"
       inkscape:vp_y="0 : 1000 : 0"
       inkscape:vp_z="744.09448 : 526.18109 : 1"
       inkscape:persp3d-origin="372.04724 : 350.78739 : 1"
       id="perspective10" />
    <inkscape:perspective
       id="perspective3968"
       inkscape:persp3d-origin="0.5 : 0.33333333 : 1"
       inkscape:vp_z="1 : 0.5 : 1"
       inkscape:vp_y="0 : 1000 : 0"
       inkscape:vp_x="0 : 0.5 : 1"
       sodipodi:type="inkscape:persp3d" />
    <inkscape:perspective
       id="perspective3993"
       inkscape:persp3d-origin="0.5 : 0.33333333 : 1"
       inkscape:vp_z="1 : 0.5 : 1"
       inkscape:vp_y="0 : 1000 : 0"
       inkscape:vp_x="0 : 0.5 : 1"
       sodipodi:type="inkscape:persp3d" />
    <inkscape:perspective
       id="perspective4046"
       inkscape:persp3d-origin="0.5 : 0.33333333 : 1"
       inkscape:vp_z="1 : 0.5 : 1"
       inkscape:vp_y="0 : 1000 : 0"
       inkscape:vp_x="0 : 0.5 : 1"
       sodipodi:type="inkscape:persp3d" />
    <inkscape:perspective
       id="perspective4071"
       inkscape:persp3d-origin="0.5 : 0.33333333 : 1"
       inkscape:vp_z="1 : 0.5 : 1"
       inkscape:vp_y="0 : 1000 : 0"
       inkscape:vp_x="0 : 0.5 : 1"
       sodipodi:type="inkscape:persp3d" />
    <inkscape:perspective
       id="perspective3653"
       inkscape:persp3d-origin="0.5 : 0.33333333 : 1"
       inkscape:vp_z="1 : 0.5 : 1"
       inkscape:vp_y="0 : 1000 : 0"
       inkscape:vp_x="0 : 0.5 : 1"
       sodipodi:type="inkscape:persp3d" />
    <inkscape:perspective
       id="perspective2968"
       inkscape:persp3d-origin="0.5 : 0.33333333 : 1"
       inkscape:vp_z="1 : 0.5 : 1"
       inkscape:vp_y="0 : 1000 : 0"
       inkscape:vp_x="0 : 0.5 : 1"
       sodipodi:type="inkscape:persp3d" />
    <inkscape:perspective
       id="perspective2996"
       inkscape:persp3d-origin="0.5 : 0.33333333 : 1"
       inkscape:vp_z="1 : 0.5 : 1"
       inkscape:vp_y="0 : 1000 : 0"
       inkscape:vp_x="0 : 0.5 : 1"
       sodipodi:type="inkscape:persp3d" />
    <inkscape:perspective
       id="perspective3826"
       inkscape:persp3d-origin="0.5 : 0.33333333 : 1"
       inkscape:vp_z="1 : 0.5 : 1"
       inkscape:vp_y="0 : 1000 : 0"
       inkscape:vp_x="0 : 0.5 : 1"
       sodipodi:type="inkscape:persp3d" />
    <inkscape:perspective
       id="perspective3869"
       inkscape:persp3d-origin="0.5 : 0.33333333 : 1"
       inkscape:vp_z="1 : 0.5 : 1"
       inkscape:vp_y="0 : 1000 : 0"
       inkscape:vp_x="0 : 0.5 : 1"
       sodipodi:type="inkscape:persp3d" />
  </defs>
  <sodipodi:namedview
     id="base"
     pagecolor="#ffffff"
     bordercolor="#666666"
     borderopacity="1.0"
     inkscape:pageopacity="0"
     inkscape:pageshadow="2"
     inkscape:zoom="0.70710678"
     inkscape:cx="244.93328"
     inkscape:cy="423.45047"
     inkscape:document-units="px"
     inkscape:current-layer="layer5"
     showgrid="false"
     showguides="true"
     inkscape:guide-bbox="true"
     inkscape:snap-to-guides="true"
     inkscape:snap-grids="false"
     inkscape:window-width="1195"
     inkscape:window-height="935"
     inkscape:window-x="52"
     inkscape:window-y="0"
     inkscape:window-maximized="0"
     inkscape:snap-global="false"
     guidetolerance="10">
    <sodipodi:guide
       orientation="1,0"
       position="256,-2"
       id="guide-vert" />
    <sodipodi:guide
       orientation="0,1"
       position="400,12"
       id="guide-horiz" />
    <sodipodi:guide
       orientation="0,1"
       position="300,256"
       id="guide2979" />
    <sodipodi:guide
       orientation="0,1"
       position="553,500"
       id="guide3015" />
    <sodipodi:guide
       orientation="1,0"
       position="500,384"
       id="guide3017" />
    <sodipodi:guide
       orientation="1,0"
       position="12,390"
       id="guide3019" />
  </sodipodi:namedview>
  <metadata
     id="metadata7">
    <rdf:RDF>
      <cc:Work
         rdf:about="">
        <dc:format>image/svg+xml</dc:format>
        <dc:type
           rdf:resource="http://purl.org/dc/dcmitype/StillImage" />
        <dc:title></dc:title>
      </cc:Work>
    </rdf:RDF>
  </metadata>
  <g
     inkscape:groupmode="layer"
     id="layer3"
     inkscape:label="wedges"
     style="display:inline"
     transform="translate(0,-540.36218)">
    <path
       transform="matrix(2.7001627,0,0,2.7001627,-797.06399,-321.50517)"
       d="M 364.56487,327.66893 A 90,90 0 0 1 468.47622,458.06225 L 390,414 z"
       sodipodi:ry="90"
       sodipodi:rx="90"
       sodipodi:cy="414"
       sodipodi:cx="390"
       id="path3810"
       style="fill:#00ff00;fill-opacity:1;stroke:none;display:inline"
       sodipodi:type="arc"
       sodipodi:start="4.4258724"
       sodipodi:end="6.794794" />
    <path
       sodipodi:type="arc"
       style="fill:#ffff00;fill-opacity:1;stroke:none;display:inline"
       id="path3013"
       sodipodi:cx="390"
       sodipodi:cy="414"
       sodipodi:rx="90"
       sodipodi:ry="90"
       d="m 321.17918,356.00263 a 90,90 0 0 1 43.8606,-28.47221 L 390,414 z"
       transform="matrix(2.6995052,0,0,2.6998347,-796.80753,-321.33923)"
       sodipodi:start="3.8418509"
       sodipodi:end="4.431369" />
    <path
       sodipodi:type="arc"
       style="fill:#000000;fill-opacity:1;stroke:none"
       id="path3806"
       sodipodi:cx="481.5"
       sodipodi:cy="441.5"
       sodipodi:rx="133.5"
       sodipodi:ry="133.5"
       d="m 615,441.5 a 133.5,133.5 0 1 1 -0.025,-2.58264"
       transform="matrix(1.6292135,0,0,1.6292135,-528.46629,77.064427)"
       sodipodi:start="0"
       sodipodi:end="6.2638385"
       sodipodi:open="true" />
  </g>
  <g
     inkscape:label="ticks"
     inkscape:groupmode="layer"
     id="layer1"
     style="display:inline"
     transform="translate(0,-540.36218)">
    <g
       id="g3972"
       transform="matrix(0.79459142,0,0,0.79459142,-62.960317,283.18266)">
      <g
         id="g4005">
        <rect
           y="339.13406"
           x="396.81329"
           height="34.601387"
           width="9.2018824"
           id="rect2915"
           style="fill:#ffffff;fill-opacity:1;stroke:none;display:inline" />
        <use
           x="0"
           y="0"
           xlink:href="#rect2915"
           id="use3929"
           transform="matrix(-1,0,0,-1,802.82847,1291.6815)"
           width="800"
           height="800" />
      </g>
      <g
         transform="matrix(0.9945219,-0.10452846,0.10452846,0.9945219,-65.309752,45.497196)"
         id="use3456">
        <rect
           style="fill:#ffffff;fill-opacity:1;stroke:none;display:inline"
           id="rect3707"
           width="9.2018824"
           height="34.601387"
           x="396.81329"
           y="339.13406" />
        <use
           height="800"
           width="800"
           transform="matrix(-1,0,0,-1,802.82847,1291.6815)"
           id="use3709"
           xlink:href="#rect2915"
           y="0"
           x="0" />
      </g>
      <g
         transform="matrix(0.9781476,-0.20791169,0.20791169,0.9781476,-125.50598,97.571882)"
         id="use3458">
        <rect
           style="fill:#ffffff;fill-opacity:1;stroke:none;display:inline"
           id="rect3701"
           width="9.2018824"
           height="34.601387"
           x="396.81329"
           y="339.13406" />
        <use
           height="800"
           width="800"
           transform="matrix(-1,0,0,-1,802.82847,1291.6815)"
           id="use3703"
           xlink:href="#rect2915"
           y="0"
           x="0" />
      </g>
      <g
         transform="matrix(0.95105652,-0.30901699,0.30901699,0.95105652,-179.92916,155.65352)"
         id="use3460">
        <rect
           style="fill:#ffffff;fill-opacity:1;stroke:none;display:inline"
           id="rect3695"
           width="9.2018824"
           height="34.601387"
           x="396.81329"
           y="339.13406" />
        <use
           height="800"
           width="800"
           transform="matrix(-1,0,0,-1,802.82847,1291.6815)"
           id="use3697"
           xlink:href="#rect2915"
           y="0"
           x="0" />
      </g>
      <g
         transform="matrix(0.91354546,-0.40673664,0.40673664,0.91354546,-227.98301,219.10574)"
         id="use3462">
        <rect
           style="fill:#ffffff;fill-opacity:1;stroke:none;display:inline"
           id="rect3689"
           width="9.2018824"
           height="34.601387"
           x="396.81329"
           y="339.13406" />
        <use
           height="800"
           width="800"
           transform="matrix(-1,0,0,-1,802.82847,1291.6815)"
           id="use3691"
           xlink:href="#rect2915"
           y="0"
           x="0" />
      </g>
      <g
         transform="matrix(0.8660254,-0.5,0.5,0.8660254,-269.14106,287.23337)"
         id="g3473">
        <g
           id="g3475">
          <rect
             y="339.13406"
             x="396.81329"
             height="34.601387"
             width="9.2018824"
             id="rect3477"
             style="fill:#ffffff;fill-opacity:1;stroke:none;display:inline" />
          <use
             x="0"
             y="0"
             xlink:href="#rect2915"
             id="use3479"
             transform="matrix(-1,0,0,-1,802.82847,1291.6815)"
             width="800"
             height="800" />
        </g>
        <g
           transform="matrix(0.9945219,-0.10452846,0.10452846,0.9945219,-65.309752,45.497196)"
           id="use3481">
          <rect
             style="fill:#ffffff;fill-opacity:1;stroke:none;display:inline"
             id="rect3569"
             width="9.2018824"
             height="34.601387"
             x="396.81329"
             y="339.13406" />
          <use
             height="800"
             width="800"
             transform="matrix(-1,0,0,-1,802.82847,1291.6815)"
             id="use3571"
             xlink:href="#rect2915"
             y="0"
             x="0" />
        </g>
        <g
           transform="matrix(0.9781476,-0.20791169,0.20791169,0.9781476,-125.50598,97.571882)"
           id="use3483">
          <rect
             style="fill:#ffffff;fill-opacity:1;stroke:none;display:inline"
             id="rect3575"
             width="9.2018824"
             height="34.601387"
             x="396.81329"
             y="339.13406" />
          <use
             height="800"
             width="800"
             transform="matrix(-1,0,0,-1,802.82847,1291.6815)"
             id="use3577"
             xlink:href="#rect2915"
             y="0"
             x="0" />
        </g>
        <g
           transform="matrix(0.95105652,-0.30901699,0.30901699,0.95105652,-179.92916,155.65352)"
           id="use3485">
          <rect
             style="fill:#ffffff;fill-opacity:1;stroke:none;display:inline"
             id="rect3581"
             width="9.2018824"
             height="34.601387"
             x="396.81329"
             y="339.13406" />
          <use
             height="800"
             width="800"
             transform="matrix(-1,0,0,-1,802.82847,1291.6815)"
             id="use3583"
             xlink:href="#rect2915"
             y="0"
             x="0" />
        </g>
        <g
           transform="matrix(0.91354546,-0.40673664,0.40673664,0.91354546,-227.98301,219.10574)"
           id="use3487">
          <rect
             style="fill:#ffffff;fill-opacity:1;stroke:none;display:inline"
             id="rect3587"
             width="9.2018824"
             height="34.601387"
             x="396.81329"
             y="339.13406" />
          <use
             height="800"
             width="800"
             transform="matrix(-1,0,0,-1,802.82847,1291.6815)"
             id="use3589"
             xlink:href="#rect2915"
             y="0"
             x="0" />
        </g>
      </g>
      <g
         transform="matrix(0.5,-0.8660254,0.8660254,0.5,-358.60738,670.5553)"
         id="g3489">
        <g
           id="g3491">
          <rect
             y="339.13406"
             x="396.81329"
             height="34.601387"
             width="9.2018824"
             id="rect3493"
             style="fill:#ffffff;fill-opacity:1;stroke:none;display:inline" />
          <use
             x="0"
             y="0"
             xlink:href="#rect2915"
             id="use3495"
             transform="matrix(-1,0,0,-1,802.82847,1291.6815)"
             width="800"
             height="800" />
        </g>
        <g
           transform="matrix(0.9945219,-0.10452846,0.10452846,0.9945219,-65.309752,45.497196)"
           id="use3497">
          <rect
             style="fill:#ffffff;fill-opacity:1;stroke:none;display:inline"
             id="rect3593"
             width="9.2018824"
             height="34.601387"
             x="396.81329"
             y="339.13406" />
          <use
             height="800"
             width="800"
             transform="matrix(-1,0,0,-1,802.82847,1291.6815)"
             id="use3595"
             xlink:href="#rect2915"
             y="0"
             x="0" />
        </g>
        <g
           transform="matrix(0.9781476,-0.20791169,0.20791169,0.9781476,-125.50598,97.571882)"
           id="use3499">
          <rect
             style="fill:#ffffff;fill-opacity:1;stroke:none;display:inline"
             id="rect3599"
             width="9.2018824"
             height="34.601387"
             x="396.81329"
             y="339.13406" />
          <use
             height="800"
             width="800"
             transform="matrix(-1,0,0,-1,802.82847,1291.6815)"
             id="use3601"
             xlink:href="#rect2915"
             y="0"
             x="0" />
        </g>
        <g
           transform="matrix(0.95105652,-0.30901699,0.30901699,0.95105652,-179.92916,155.65352)"
           id="use3501">
          <rect
             style="fill:#ffffff;fill-opacity:1;stroke:none;display:inline"
             id="rect3605"
             width="9.2018824"
             height="34.601387"
             x="396.81329"
             y="339.13406" />
          <use
             height="800"
             width="800"
             transform="matrix(-1,0,0,-1,802.82847,1291.6815)"
             id="use3607"
             xlink:href="#rect2915"
             y="0"
             x="0" />
        </g>
        <g
           transform="matrix(0.91354546,-0.40673664,0.40673664,0.91354546,-227.98301,219.10574)"
           id="use3503">
          <rect
             style="fill:#ffffff;fill-opacity:1;stroke:none;display:inline"
             id="rect3611"
             width="9.2018824"
             height="34.601387"
             x="396.81329"
             y="339.13406" />
          <use
             height="800"
             width="800"
             transform="matrix(-1,0,0,-1,802.82847,1291.6815)"
             id="use3613"
             xlink:href="#rect2915"
             y="0"
             x="0" />
        </g>
      </g>
      <g
         transform="matrix(0,-1,1,0,-244.42651,1047.255)"
         id="g3505">
        <g
           id="g3507">
          <rect
             y="339.13406"
             x="396.81329"
             height="34.601387"
             width="9.2018824"
             id="rect3509"
             style="fill:#ffffff;fill-opacity:1;stroke:none;display:inline" />
          <use
             x="0"
             y="0"
             xlink:href="#rect2915"
             id="use3511"
             transform="matrix(-1,0,0,-1,802.82847,1291.6815)"
             width="800"
             height="800" />
        </g>
        <g
           transform="matrix(0.9945219,-0.10452846,0.10452846,0.9945219,-65.309752,45.497196)"
           id="use3513">
          <rect
             style="fill:#ffffff;fill-opacity:1;stroke:none;display:inline"
             id="rect3617"
             width="9.2018824"
             height="34.601387"
             x="396.81329"
             y="339.13406" />
          <use
             height="800"
             width="800"
             transform="matrix(-1,0,0,-1,802.82847,1291.6815)"
             id="use3619"
             xlink:href="#rect2915"
             y="0"
             x="0" />
        </g>
        <g
           transform="matrix(0.9781476,-0.20791169,0.20791169,0.9781476,-125.50598,97.571882)"
           id="use3515">
          <rect
             style="fill:#ffffff;fill-opacity:1;stroke:none;display:inline"
             id="rect3623"
             width="9.2018824"
             height="34.601387"
             x="396.81329"
             y="339.13406" />
          <use
             height="800"
             width="800"
             transform="matrix(-1,0,0,-1,802.82847,1291.6815)"
             id="use3625"
             xlink:href="#rect2915"
             y="0"
             x="0" />
        </g>
        <g
           transform="matrix(0.95105652,-0.30901699,0.30901699,0.95105652,-179.92916,155.65352)"
           id="use3517">
          <rect
             style="fill:#ffffff;fill-opacity:1;stroke:none;display:inline"
             id="rect3629"
             width="9.2018824"
             height="34.601387"
             x="396.81329"
             y="339.13406" />
          <use
             height="800"
             width="800"
             transform="matrix(-1,0,0,-1,802.82847,1291.6815)"
             id="use3631"
             xlink:href="#rect2915"
             y="0"
             x="0" />
        </g>
        <g
           transform="matrix(0.91354546,-0.40673664,0.40673664,0.91354546,-227.98301,219.10574)"
           id="use3519">
          <rect
             style="fill:#ffffff;fill-opacity:1;stroke:none;display:inline"
             id="rect3635"
             width="9.2018824"
             height="34.601387"
             x="396.81329"
             y="339.13406" />
          <use
             height="800"
             width="800"
             transform="matrix(-1,0,0,-1,802.82847,1291.6815)"
             id="use3637"
             xlink:href="#rect2915"
             y="0"
             x="0" />
        </g>
      </g>
      <g
         transform="matrix(-0.5,-0.8660254,0.8660254,-0.5,42.806862,1316.3961)"
         id="g3521">
        <g
           id="g3523">
          <rect
             y="339.13406"
             x="396.81329"
             height="34.601387"
             width="9.2018824"
             id="rect3525"
             style="fill:#ffffff;fill-opacity:1;stroke:none;display:inline" />
          <use
             x="0"
             y="0"
             xlink:href="#rect2915"
             id="use3527"
             transform="matrix(-1,0,0,-1,802.82847,1291.6815)"
             width="800"
             height="800" />
        </g>
        <g
           transform="matrix(0.9945219,-0.10452846,0.10452846,0.9945219,-65.309752,45.497196)"
           id="use3529">
          <rect
             style="fill:#ffffff;fill-opacity:1;stroke:none;display:inline"
             id="rect3641"
             width="9.2018824"
             height="34.601387"
             x="396.81329"
             y="339.13406" />
          <use
             height="800"
             width="800"
             transform="matrix(-1,0,0,-1,802.82847,1291.6815)"
             id="use3643"
             xlink:href="#rect2915"
             y="0"
             x="0" />
        </g>
        <g
           transform="matrix(0.9781476,-0.20791169,0.20791169,0.9781476,-125.50598,97.571882)"
           id="use3531">
          <rect
             style="fill:#ffffff;fill-opacity:1;stroke:none;display:inline"
             id="rect3647"
             width="9.2018824"
             height="34.601387"
             x="396.81329"
             y="339.13406" />
          <use
             height="800"
             width="800"
             transform="matrix(-1,0,0,-1,802.82847,1291.6815)"
             id="use3649"
             xlink:href="#rect2915"
             y="0"
             x="0" />
        </g>
        <g
           transform="matrix(0.95105652,-0.30901699,0.30901699,0.95105652,-179.92916,155.65352)"
           id="use3533">
          <rect
             style="fill:#ffffff;fill-opacity:1;stroke:none;display:inline"
             id="rect3653"
             width="9.2018824"
             height="34.601387"
             x="396.81329"
             y="339.13406" />
          <use
             height="800"
             width="800"
             transform="matrix(-1,0,0,-1,802.82847,1291.6815)"
             id="use3655"
             xlink:href="#rect2915"
             y="0"
             x="0" />
        </g>
        <g
           transform="matrix(0.91354546,-0.40673664,0.40673664,0.91354546,-227.98301,219.10574)"
           id="use3535">
          <rect
             style="fill:#ffffff;fill-opacity:1;stroke:none;display:inline"
             id="rect3659"
             width="9.2018824"
             height="34.601387"
             x="396.81329"
             y="339.13406" />
          <use
             height="800"
             width="800"
             transform="matrix(-1,0,0,-1,802.82847,1291.6815)"
             id="use3661"
             xlink:href="#rect2915"
             y="0"
             x="0" />
        </g>
      </g>
      <g
         transform="matrix(-0.8660254,-0.5,0.5,-0.8660254,426.12879,1405.8624)"
         id="g3539">
        <rect
           style="fill:#ffffff;fill-opacity:1;stroke:none;display:inline"
           id="rect3541"
           width="9.2018824"
           height="34.601387"
           x="396.81329"
           y="339.13406" />
        <use
           height="800"
           width="800"
           transform="matrix(-1,0,0,-1,802.82847,1291.6815)"
           id="use3543"
           xlink:href="#rect2915"
           y="0"
           x="0" />
      </g>
      <g
         transform="matrix(-0.91354546,-0.40673665,0.40673665,-0.91354546,505.43729,1399.1155)"
         id="use3545">
        <rect
           style="fill:#ffffff;fill-opacity:1;stroke:none;display:inline"
           id="rect3683"
           width="9.2018824"
           height="34.601387"
           x="396.81329"
           y="339.13406" />
        <use
           height="800"
           width="800"
           transform="matrix(-1,0,0,-1,802.82847,1291.6815)"
           id="use3685"
           xlink:href="#rect2915"
           y="0"
           x="0" />
      </g>
      <g
         transform="matrix(-0.95105651,-0.309017,0.309017,-0.95105651,583.6061,1384.1157)"
         id="use3547">
        <rect
           style="fill:#ffffff;fill-opacity:1;stroke:none;display:inline"
           id="rect3677"
           width="9.2018824"
           height="34.601387"
           x="396.81329"
           y="339.13406" />
        <use
           height="800"
           width="800"
           transform="matrix(-1,0,0,-1,802.82847,1291.6815)"
           id="use3679"
           xlink:href="#rect2915"
           y="0"
           x="0" />
      </g>
      <g
         transform="matrix(-0.9781476,-0.2079117,0.2079117,-0.9781476,659.77877,1361.0271)"
         id="use3549">
        <rect
           style="fill:#ffffff;fill-opacity:1;stroke:none;display:inline"
           id="rect3671"
           width="9.2018824"
           height="34.601387"
           x="396.81329"
           y="339.13406" />
        <use
           height="800"
           width="800"
           transform="matrix(-1,0,0,-1,802.82847,1291.6815)"
           id="use3673"
           xlink:href="#rect2915"
           y="0"
           x="0" />
      </g>
      <g
         transform="matrix(-0.99452189,-0.10452847,0.10452847,-0.99452189,733.12074,1330.1028)"
         id="use3551">
        <rect
           style="fill:#ffffff;fill-opacity:1;stroke:none;display:inline"
           id="rect3665"
           width="9.2018824"
           height="34.601387"
           x="396.81329"
           y="339.13406" />
        <use
           height="800"
           width="800"
           transform="matrix(-1,0,0,-1,802.82847,1291.6815)"
           id="use3667"
           xlink:href="#rect2915"
           y="0"
           x="0" />
      </g>
      <rect
         y="897.94604"
         x="395.03616"
         height="54.601387"
         width="12.756152"
         id="rect4845"
         style="fill:#ffffff;fill-opacity:1;stroke:none;display:inline" />
      <g
         transform="matrix(-0.8660254,-0.5,0.5,-0.8660254,426.12879,1405.8624)"
         id="g4925">
        <rect
           style="fill:#ffffff;fill-opacity:1;stroke:none;display:inline"
           id="rect4927"
           width="12.756152"
           height="44.601387"
           x="395.03616"
           y="339.13406" />
        <rect
           y="907.94604"
           x="395.03616"
           height="44.601387"
           width="12.756152"
           id="rect4929"
           style="fill:#ffffff;fill-opacity:1;stroke:none;display:inline" />
      </g>
    </g>
  </g>
  <g
     inkscape:groupmode="layer"
     id="layer2"
     inkscape:label="background"
     style="display:inline"
     transform="translate(0,-540.36218)">
    <path
       sodipodi:type="arc"
       style="fill:#000000;fill-opacity:1;stroke:none"
       id="path2972"
       sodipodi:cx="-165"
       sodipodi:cy="63"
       sodipodi:rx="119"
       sodipodi:ry="119"
       d="m -46,63 a 119,119 0 1 1 -238,0 119,119 0 1 1 238,0 z"
       transform="matrix(2.1512605,0,0,2.1512605,610.95798,660.83277)" />
  </g>
  <g
     inkscape:groupmode="layer"
     id="layer6"
     inkscape:label="ticks-5"
     style="display:inline"
     transform="translate(0,-288)">
    <g
       id="g3076">
      <rect
         transform="matrix(0,-1,1,0,0,0)"
         y="12.293311"
         x="-545.88599"
         height="27.661732"
         width="3.7719758"
         id="rect4921"
         style="fill:#ffffff;fill-opacity:1;stroke:none;display:inline" />
      <rect
         style="fill:#ffffff;fill-opacity:1;stroke:none;display:inline"
         id="rect3074"
         width="3.7719758"
         height="27.661732"
         x="-545.88599"
         y="472.26627"
         transform="matrix(0,-1,1,0,0,0)" />
    </g>
    <g
       id="g3080"
       transform="matrix(0.76578498,0.6430967,-0.6430967,0.76578498,409.82956,-37.290946)">
      <rect
         style="fill:#ffffff;fill-opacity:1;stroke:none;display:inline"
         id="rect3082"
         width="3.7719758"
         height="27.661732"
         x="-545.88599"
         y="12.293311"
         transform="matrix(0,-1,1,0,0,0)" />
      <rect
         transform="matrix(0,-1,1,0,0,0)"
         y="472.26627"
         x="-545.88599"
         height="27.661732"
         width="3.7719758"
         id="rect3084"
         style="fill:#ffffff;fill-opacity:1;stroke:none;display:inline" />
    </g>
    <g
       transform="matrix(0.35325848,0.93552576,-0.93552576,0.35325848,674.56339,112.22927)"
       id="g3112">
      <rect
         transform="matrix(0,-1,1,0,0,0)"
         y="12.293311"
         x="-545.88599"
         height="27.661732"
         width="3.7719758"
         id="rect3114"
         style="fill:#ffffff;fill-opacity:1;stroke:none;display:inline" />
      <rect
         style="fill:#ffffff;fill-opacity:1;stroke:none;display:inline"
         id="rect3116"
         width="3.7719758"
         height="27.661732"
         x="-545.88599"
         y="472.26627"
         transform="matrix(0,-1,1,0,0,0)" />
    </g>
    <g
       id="g3118"
       transform="matrix(-0.14508347,0.98941942,-0.98941942,-0.14508347,831.51223,369.52455)">
      <rect
         style="fill:#ffffff;fill-opacity:1;stroke:none;display:inline"
         id="rect3120"
         width="3.7719758"
         height="27.661732"
         x="-545.88599"
         y="12.293311"
         transform="matrix(0,-1,1,0,0,0)" />
      <rect
         transform="matrix(0,-1,1,0,0,0)"
         y="472.26627"
         x="-545.88599"
         height="27.661732"
         width="3.7719758"
         id="rect3122"
         style="fill:#ffffff;fill-opacity:1;stroke:none;display:inline" />
    </g>
    <g
       transform="matrix(-0.63845118,0.76966232,-0.76966232,-0.63845118,838.3211,694.19872)"
       id="g3124">
      <rect
         transform="matrix(0,-1,1,0,0,0)"
         y="12.293311"
         x="-545.88599"
         height="27.661732"
         width="3.7719758"
         id="rect3126"
         style="fill:#ffffff;fill-opacity:1;stroke:none;display:inline" />
      <rect
         style="fill:#ffffff;fill-opacity:1;stroke:none;display:inline"
         id="rect3128"
         width="3.7719758"
         height="27.661732"
         x="-545.88599"
         y="472.26627"
         transform="matrix(0,-1,1,0,0,0)" />
    </g>
    <rect
       transform="matrix(0.29451855,0.95564576,-0.95564576,0.29451855,0,0)"
       y="-328.35031"
       x="593.41461"
       height="27.661732"
       width="3.7719758"
       id="rect3144"
       style="fill:#ffffff;fill-opacity:1;stroke:none;display:inline" />
    <g
       id="g3990"
       transform="matrix(-0.91122471,-0.41190962,0.41190962,-0.91122471,265.40617,1145.2007)">
      <rect
         style="fill:#ffffff;fill-opacity:1;stroke:none;display:inline"
         id="rect3992"
         width="3.7719758"
         height="27.661732"
         x="-545.88599"
         y="12.293311"
         transform="matrix(0,-1,1,0,0,0)" />
      <rect
         transform="matrix(0,-1,1,0,0,0)"
         y="472.26627"
         x="-545.88599"
         height="27.661732"
         width="3.7719758"
         id="rect3994"
         style="fill:#ffffff;fill-opacity:1;stroke:none;display:inline" />
    </g>
  </g>
  <g
     inkscape:groupmode="layer"
     id="layer5"
     inkscape:label="ticks-10"
     style="display:inline"
     transform="translate(0,-288)">
    <g
       transform="matrix(0.78984484,-0.08672731,0.08672731,0.78984484,-117.067,68.699593)"
       style="display:inline"
       id="g4804">
      <rect
         y="339.13406"
         x="395.03616"
         height="54.601387"
         width="12.756152"
         id="rect4011"
         style="fill:#ffffff;fill-opacity:1;stroke:none;display:inline" />
      <rect
         style="fill:#ffffff;fill-opacity:1;stroke:none;display:inline"
         id="rect4802"
         width="12.756152"
         height="54.601387"
         x="395.03616"
         y="897.94604" />
    </g>
    <rect
       style="fill:#ffffff;fill-opacity:1;stroke:none;display:inline"
       id="rect3131"
       width="10.135937"
       height="43.385826"
       x="594.96539"
       y="162.47974"
       transform="matrix(0.36800354,0.92982439,-0.92982439,0.36800354,0,0)" />
    <g
       id="g3133"
       style="display:inline"
       transform="matrix(0.31291556,-0.7303837,0.7303837,0.31291556,-341.32031,635.09279)">
      <rect
         style="fill:#ffffff;fill-opacity:1;stroke:none;display:inline"
         id="rect3135"
         width="12.756152"
         height="54.601387"
         x="395.03616"
         y="339.13406" />
    </g>
    <g
       id="g2972"
       style="display:inline"
       transform="matrix(0.6521401,-0.45397113,0.45397113,0.6521401,-298.97138,305.05182)">
      <rect
         style="fill:#ffffff;fill-opacity:1;stroke:none;display:inline"
         id="rect2974"
         width="12.756152"
         height="54.601387"
         x="395.03616"
         y="339.13406" />
      <rect
         y="897.94604"
         x="395.03616"
         height="54.601387"
         width="12.756152"
         id="rect2976"
         style="fill:#ffffff;fill-opacity:1;stroke:none;display:inline" />
    </g>
    <g
       id="g2993"
       style="display:inline"
       transform="matrix(0.726409,0.32203488,-0.32203488,0.726409,172.39233,-54.413919)">
      <rect
         style="fill:#ffffff;fill-opacity:1;stroke:none;display:inline"
         id="rect2995"
         width="12.756152"
         height="54.601387"
         x="395.03616"
         y="339.13406" />
      <rect
         y="897.94604"
         x="395.03616"
         height="54.601387"
         width="12.756152"
         id="rect2997"
         style="fill:#ffffff;fill-opacity:1;stroke:none;display:inline" />
    </g>
    <g
       transform="matrix(0.44702276,0.65692248,-0.65692248,0.44702276,500.82601,-8.4035579)"
       style="display:inline"
       id="g3130">
      <rect
         y="339.13406"
         x="395.03616"
         height="54.601387"
         width="12.756152"
         id="rect3132"
         style="fill:#ffffff;fill-opacity:1;stroke:none;display:inline" />
      <rect
         style="fill:#ffffff;fill-opacity:1;stroke:none;display:inline"
         id="rect3134"
         width="12.756152"
         height="54.601387"
         x="395.03616"
         y="897.94604" />
    </g>
    <rect
       y="458.9877"
       x="-547.80499"
       height="43.385826"
       width="10.135937"
       id="rect3140"
       style="fill:#ffffff;fill-opacity:1;stroke:none;display:inline"
       transform="matrix(0.00490793,-0.99998796,0.99998796,0.00490793,0,0)" />
    <path
       transform="matrix(2.1512605,0,0,2.1512605,610.95798,408.47059)"
       d="M -56.700667,112.31789 A 119,119 0 0 1 -273.74487,111.32757"
       sodipodi:ry="119"
       sodipodi:rx="119"
       sodipodi:cy="63"
       sodipodi:cx="-165"
       id="path3193"
       style="fill:#000000;fill-opacity:1;stroke:none;display:inline"
       sodipodi:type="arc"
       sodipodi:start="0.42732306"
       sodipodi:end="2.7233951"
       sodipodi:open="true" />
  </g>
  <g
     inkscape:groupmode="layer"
     id="layer4"
     inkscape:label="numbers"
     style="display:inline"
     transform="translate(0,-540.36218)">
    <flowRoot
       xml:space="preserve"
       id="flowRoot3671"
       style="font-size:32px;font-style:normal;font-weight:normal;text-align:center;line-height:125%;writing-mode:lr-tb;text-anchor:middle;fill:#ffffff;fill-opacity:1;stroke:none;font-family:Bitstream Vera Sans"
       transform="translate(-244.33095,401.29856)"><flowRegion
         id="flowRegion3673"><rect
           id="rect3675"
           width="438.51273"
           height="122.72083"
           x="281.83255"
           y="497.78842"
           style="font-size:32px;text-align:center;line-height:125%;writing-mode:lr-tb;text-anchor:middle;fill:#ffffff;fill-opacity:1" /></flowRegion><flowPara
         id="flowPara3679"
         style="font-size:40px;font-style:normal;font-variant:normal;font-weight:normal;font-stretch:normal;text-align:center;line-height:100%;writing-mode:lr;text-anchor:middle;font-family:Sans;-inkscape-font-specification:Sans">FUEL QTY</flowPara></flowRoot>    <text
       id="text-0"
       y="871.98627"
       x="78.455574"
       style="font-size:33.47964478px;font-style:normal;font-weight:normal;fill:#f9ffff;fill-opacity:1;stroke:none;font-family:Bitstream Vera Sans"
       xml:space="preserve"><tspan
         y="871.98627"
         x="78.455574"
         id="tspan3958-2"
         sodipodi:role="line">0</tspan></text>
    <text
       id="text-30"
       y="649.19092"
       x="307.85312"
       style="font-size:33.47964478px;font-style:normal;font-weight:normal;fill:#f9ffff;fill-opacity:1;stroke:none;font-family:Bitstream Vera Sans"
       xml:space="preserve"><tspan
         id="tspan3054"
         y="649.19092"
         x="307.85312"
         sodipodi:role="line">40</tspan></text>
    <text
       id="text-10"
       y="734.79767"
       x="81.61068"
       style="font-size:33.47964478px;font-style:normal;font-weight:normal;fill:#f9ffff;fill-opacity:1;stroke:none;font-family:Bitstream Vera Sans"
       xml:space="preserve"><tspan
         y="734.79767"
         x="81.61068"
         id="tspan3958"
         sodipodi:role="line">I0</tspan></text>
    <text
       id="text-20"
       y="632.51337"
       x="212.89592"
       style="font-size:33.47964478px;font-style:normal;font-weight:normal;fill:#f9ffff;fill-opacity:1;stroke:none;font-family:Bitstream Vera Sans"
       xml:space="preserve"><tspan
         y="632.51337"
         x="212.89592"
         sodipodi:role="line"
         id="tspan3816">30</tspan></text>
    <text
       xml:space="preserve"
       style="font-size:33.47964478px;font-style:normal;font-weight:normal;fill:#f9ffff;fill-opacity:1;stroke:none;font-family:Bitstream Vera Sans"
       x="144.42726"
       y="661.81049"
       id="text3062"><tspan
         sodipodi:role="line"
         id="tspan3064"
         x="144.42726"
         y="661.81049">20</tspan></text>
    <flowRoot
       xml:space="preserve"
       id="flowRoot3671-9"
       style="font-size:32px;font-style:normal;font-weight:normal;text-align:center;line-height:125%;writing-mode:lr-tb;text-anchor:middle;fill:#ffffff;fill-opacity:1;stroke:none;display:inline;font-family:Bitstream Vera Sans"
       transform="translate(-244.33203,441.46201)"><flowRegion
         id="flowRegion3673-2"><rect
           id="rect3675-0"
           width="438.51273"
           height="122.72083"
           x="281.83255"
           y="497.78842"
           style="font-size:32px;text-align:center;line-height:125%;writing-mode:lr-tb;text-anchor:middle;fill:#ffffff;fill-opacity:1" /></flowRegion><flowPara
         style="font-size:32px;font-style:normal;font-variant:normal;font-weight:normal;font-stretch:normal;text-align:center;line-height:100%;writing-mode:lr-tb;text-anchor:middle;font-family:Sans;-inkscape-font-specification:Sans"
         id="flowPara3892">US GALL</flowPara></flowRoot>    <text
       xml:space="preserve"
       style="font-size:33.47964478px;font-style:normal;font-weight:normal;fill:#f9ffff;fill-opacity:1;stroke:none;font-family:Bitstream Vera Sans"
       x="373.85312"
       y="708.46301"
       id="text3048"><tspan
         sodipodi:role="line"
         x="373.85312"
         y="708.46301"
         id="tspan3050">50</tspan></text>
    <text
       id="text3052"
       y="809.19092"
       x="412.85312"
       style="font-size:33.47964478px;font-style:normal;font-weight:normal;fill:#f9ffff;fill-opacity:1;stroke:none;font-family:Bitstream Vera Sans"
       xml:space="preserve"><tspan
         id="tspan3055"
         y="809.19092"
         x="412.85312"
         sodipodi:role="line">60</tspan></text>
  </g>
</svg>
