<?xml version="1.0" encoding="UTF-8" standalone="no"?>
<!-- Created with Inkscape (http://www.inkscape.org/) -->

<svg
   xmlns:dc="http://purl.org/dc/elements/1.1/"
   xmlns:cc="http://creativecommons.org/ns#"
   xmlns:rdf="http://www.w3.org/1999/02/22-rdf-syntax-ns#"
   xmlns:svg="http://www.w3.org/2000/svg"
   xmlns="http://www.w3.org/2000/svg"
   xmlns:sodipodi="http://sodipodi.sourceforge.net/DTD/sodipodi-0.dtd"
   xmlns:inkscape="http://www.inkscape.org/namespaces/inkscape"
   width="744.09448819"
   height="1052.3622047"
   id="svg2"
   version="1.1"
   inkscape:version="0.47 r22583"
   sodipodi:docname="Islander-logo.svg">
  <defs
     id="defs4">
    <inkscape:perspective
       sodipodi:type="inkscape:persp3d"
       inkscape:vp_x="0 : 526.18109 : 1"
       inkscape:vp_y="0 : 1000 : 0"
       inkscape:vp_z="744.09448 : 526.18109 : 1"
       inkscape:persp3d-origin="372.04724 : 350.78739 : 1"
       id="perspective10" />
    <inkscape:perspective
       id="perspective3075"
       inkscape:persp3d-origin="0.5 : 0.33333333 : 1"
       inkscape:vp_z="1 : 0.5 : 1"
       inkscape:vp_y="0 : 1000 : 0"
       inkscape:vp_x="0 : 0.5 : 1"
       sodipodi:type="inkscape:persp3d" />
    <inkscape:perspective
       id="perspective3177"
       inkscape:persp3d-origin="0.5 : 0.33333333 : 1"
       inkscape:vp_z="1 : 0.5 : 1"
       inkscape:vp_y="0 : 1000 : 0"
       inkscape:vp_x="0 : 0.5 : 1"
       sodipodi:type="inkscape:persp3d" />
    <inkscape:perspective
       id="perspective3232"
       inkscape:persp3d-origin="0.5 : 0.33333333 : 1"
       inkscape:vp_z="1 : 0.5 : 1"
       inkscape:vp_y="0 : 1000 : 0"
       inkscape:vp_x="0 : 0.5 : 1"
       sodipodi:type="inkscape:persp3d" />
    <inkscape:perspective
       id="perspective2824"
       inkscape:persp3d-origin="0.5 : 0.33333333 : 1"
       inkscape:vp_z="1 : 0.5 : 1"
       inkscape:vp_y="0 : 1000 : 0"
       inkscape:vp_x="0 : 0.5 : 1"
       sodipodi:type="inkscape:persp3d" />
  </defs>
  <sodipodi:namedview
     id="base"
     pagecolor="#ffffff"
     bordercolor="#666666"
     borderopacity="1.0"
     inkscape:pageopacity="0.0"
     inkscape:pageshadow="2"
     inkscape:zoom="0.35"
     inkscape:cx="714.49633"
     inkscape:cy="439.33949"
     inkscape:document-units="px"
     inkscape:current-layer="layer1"
     showgrid="false"
     inkscape:window-width="1116"
     inkscape:window-height="761"
     inkscape:window-x="27"
     inkscape:window-y="54"
     inkscape:window-maximized="0" />
  <metadata
     id="metadata7">
    <rdf:RDF>
      <cc:Work
         rdf:about="">
        <dc:format>image/svg+xml</dc:format>
        <dc:type
           rdf:resource="http://purl.org/dc/dcmitype/StillImage" />
        <dc:title />
      </cc:Work>
    </rdf:RDF>
  </metadata>
  <g
     inkscape:label="Layer 1"
     inkscape:groupmode="layer"
     id="layer1">
    <path
       style="fill:#000000"
       d="m 277.89616,370.41336 c 3.35093,-2.11634 2.84595,-5.7123 -1.39818,-9.95644 l -3.64819,-3.64818 0.57781,-14.13515 c 0.31779,-7.77433 0.88262,-14.92265 1.25517,-15.88515 0.50463,-1.30373 1.8144,-1.75 5.13612,-1.75 5.92642,0 7.61166,1.05919 9.84746,6.18924 1.0333,2.37092 3.05956,6.11076 4.50279,8.31076 8.18294,12.47372 9.85851,15.33885 10.91089,18.65698 0.66973,2.11169 3.23475,5.59782 6.07014,8.25 4.07586,3.81249 5.56486,4.59302 8.76202,4.59302 4.80786,0 6.16131,-1.08971 10.0955,-8.12823 6.68858,-17.52112 5.28434,-37.07829 9.88978,-55.35305 1.36042,-4.95547 2.63731,-6.96427 7.44536,-11.71296 6.1123,-6.03685 6.85076,-7.99089 4.14834,-10.97702 -1.4462,-1.59804 -3.34256,-1.82874 -15.03212,-1.82874 -15.10467,0 -19.82594,1.21167 -20.86586,5.35501 -1.01285,4.03555 -0.14146,6.00084 3.7883,8.54387 4.53397,2.93404 6.14333,7.25716 5.56803,14.95709 -0.62767,8.40087 -2.48683,11.57483 -7.00021,11.9508 -3.11652,0.25962 -3.9539,-0.12471 -5.44715,-2.5 -0.97047,-1.54372 -3.24759,-4.49557 -5.06025,-6.55965 -1.81266,-2.06409 -3.29575,-4.35907 -3.29575,-5.09996 0,-0.7409 -1.36005,-3.22457 -3.02233,-5.51929 -1.66228,-2.29471 -3.91688,-6.5631 -5.01022,-9.48532 -3.61008,-9.6488 -8.30041,-12.02129 -21.96745,-11.11172 -14.26488,0.94936 -14.9742,1.16318 -16.57591,4.99661 -2.19997,5.26526 -1.80881,7.35796 1.73252,9.26907 6.22913,3.3616 6.66434,4.2587 6.7269,13.86647 0.0583,8.96043 -1.39325,17.56514 -4.94908,29.33702 -1.07987,3.575 -1.95689,7.52695 -1.94892,8.78212 0.0273,4.29208 -2.77531,9.0601 -6.82979,11.61958 -4.74464,2.99516 -6.02988,5.97488 -3.6916,8.55865 1.42374,1.57321 3.34787,1.81826 14.34013,1.8263 9.26249,0.007 13.30421,-0.37499 14.94575,-1.41173 z"
       id="path3183"
       sodipodi:nodetypes="ccccsssssssccsssssssssssssssssssssc" />
    <path
       sodipodi:nodetypes="cssssssssssc"
       id="path2866"
       d="m 661.26902,538.71692 c 1.50976,5.5775 -2.3134,57.81787 0.75774,59.78917 7.93042,5.0904 18.2974,5.7732 29.6194,1.9507 11.99418,-4.0494 15.23261,-10.5113 16.40807,-32.7408 0.99645,-18.84412 1.88642,-19.91368 16.26316,-19.54496 10.46929,0.26851 10.15333,0.47651 16.49072,-10.85579 6.83137,-12.21564 6.71503,-19.02381 -0.52884,-30.9482 -5.55652,-9.14676 -8.4036,-11.456 -14.89302,-12.07955 -6.08723,-0.58491 -10.217,1.35949 -13.22511,6.22671 -3.24126,5.24447 -5.01783,5.10009 -14.195,-1.15361 -10.97253,-7.47715 -16.34159,-6.92919 -30.31678,3.09406 -3.85296,2.7634 -3.10893,36.26227 -6.38034,36.26227 z"
       style="fill:#000000" />
    <path
       sodipodi:nodetypes="csczssszscsssccsssccsssc"
       id="path2868"
       d="m 211.78245,371.89902 c 9.26962,-2.82592 16.20755,-9.32119 17.39317,-21.49204 1.78473,-18.32096 -11.81395,-24.01064 -11.81395,-24.01064 0,0 9.26153,-6.26435 10.49107,-19.20699 1.22954,-12.94264 -4.73104,-18.3409 -12.02168,-21.08958 -1.70829,-0.64405 -12.32381,-1.0527 -27,-1.03937 -21.56526,0.0196 -24.63651,0.22701 -28.35422,1.91499 -4.49415,2.04051 -9.85054,6.13607 -6.33068,8.42238 l 8.85714,5.75313 c 3.60334,2.34054 -1.32877,37.98677 -2.99666,51.86104 -1.17514,6.86069 -4.31601,6.13721 -9.32681,10.99387 -3.55048,3.44125 -4.46584,6.70046 -2.44845,8.71785 0.72987,0.72987 23.86786,1.06563 29.25,1.06563 24.62595,0 28.93579,-0.25462 34.30107,-1.89027 z m -29.0831,-9.19803 c -1.69068,-1.23625 -1.7562,-2.21297 -0.86596,-12.90871 1.22798,-14.75345 2.34267,-16.75384 9.33582,-16.75384 8.17515,0 10.14799,3.95347 9.14555,18.32729 -0.62698,8.99024 -11.36913,15.90265 -17.61541,11.33526 z m 2.82847,-40.85403 c -1.05255,-1.70305 -0.3234,-17.46363 0.87752,-20.62229 1.75552,-4.61738 10.94153,-4.15403 13.48332,-0.93623 1.54845,1.96027 1.81718,11.61024 0.75337,15.46305 -1.7046,6.17353 -12.66557,10.05745 -15.11421,6.09547 z"
       style="fill:#000000" />
    <path
       style="fill:#000000"
       d="m 640.35388,371.89902 c 9.26962,-2.82592 14.71904,-9.55955 17.39317,-21.49204 1.78473,-7.96382 -3.24777,-23.25509 -12.52824,-26.51064 2.81874,-7.62967 10.90799,1.40683 11.20536,-16.70699 1.09028,-8.1286 -4.73104,-18.3409 -12.02168,-21.08958 -1.70829,-0.64405 -12.32381,-1.0527 -27,-1.03937 -21.56526,0.0196 -24.63651,0.22701 -28.35422,1.91499 -4.49415,2.04051 -6.33068,4.48384 -6.33068,8.42238 0,1.8958 1.01527,3.05111 4.25,4.83626 l 4.25,2.34544 -0.31049,17.97948 c -0.17077,9.88872 -0.76427,20.62873 -1.31888,23.86669 -1.17514,6.86069 -5.32616,14.72351 -10.33696,19.58017 -3.55048,3.44125 -4.46584,6.70046 -2.44845,8.71785 0.72987,0.72987 10.30744,1.0788 29.25,1.06563 24.62594,-0.0171 28.93579,-0.25462 34.30107,-1.89027 z m -29.0831,-9.19803 c -1.69068,-1.23625 -1.7562,-2.21297 -0.86596,-12.90871 1.22798,-14.75345 2.34267,-16.75384 9.33582,-16.75384 8.17515,0 10.14799,3.95347 9.14555,18.32729 -0.62698,8.99024 -11.36913,15.90265 -17.61541,11.33526 z m 2.82847,-40.85403 c -1.05255,-1.70305 -0.3234,-17.46363 0.87752,-20.62229 1.75552,-4.61738 10.94153,-4.15403 13.48332,-0.93623 1.54845,1.96027 1.81718,11.61024 0.75337,15.46305 -1.7046,6.17353 -12.66557,10.05745 -15.11421,6.09547 z"
       id="path2870"
       sodipodi:nodetypes="csccsssscccssssccsssccsssc" />
    <path
       sodipodi:nodetypes="cssssssssssssc"
       id="path2872"
       d="m 369.92826,339.48539 c 2.04483,-0.85417 4.88514,-2.67107 6.31178,-4.03754 3.98731,-3.81912 8.69205,-4.12899 15.29114,-1.00712 7.71616,3.65033 20.32281,5.31726 24.37311,3.22277 4.06215,-2.10061 13.43367,-10.20005 14.94191,-12.91369 3.02481,-5.4423 -0.0763,-12.12851 -6.15403,-13.26871 -2.62518,-0.49249 -4.41091,-0.0201 -8.10264,2.14338 -4.28051,2.50855 -5.62995,2.7709 -14.0494,2.73143 -7.9811,-0.0374 -10.08538,-0.42104 -14.7037,-2.68057 -2.9643,-1.45029 -6.24478,-2.63654 -7.28996,-2.63611 -2.28557,9.5e-4 -14.20675,5.52053 -16.60747,7.68936 -2.31945,2.09541 -6.10074,13.76446 -5.28903,16.32193 0.80157,2.52552 4.39635,5.98792 6.21685,5.98792 0.73896,0 3.0166,-0.69887 5.06144,-1.55305 z"
       style="fill:#000000" />
    <path
       style="fill:#000000"
       d="m 526.81096,372.78844 c 5.50785,-6.15501 8.41798,-11.57396 9.36135,-17.43178 0.5395,-3.34998 1.65432,-7.70257 2.47738,-9.67243 2.19634,-5.25658 1.86641,-9.05269 -1.09242,-12.56906 -3.86563,-4.59404 -6.72466,-4.11901 -10.07094,1.67327 -1.50928,2.6125 -3.21575,5.08061 -3.79216,5.48469 -1.289,0.90363 -14.75845,1.00552 -17.04283,0.12893 -2.52092,-0.96737 -3.52699,-4.70075 -2.38314,-8.84345 1.10974,-4.01915 1.76803,-4.74939 10.83583,-12.02017 9.66427,-7.74905 20.10497,-18.40614 21.64621,-22.09486 1.64227,-3.9305 1.80386,-11.3962 0.35925,-16.59752 -0.65,-2.34034 -2.67574,-5.14497 -5.5322,-7.65933 -5.86462,-5.16224 -11.83686,-6.63527 -23.31981,-5.75172 -13.3704,1.02878 -18.51252,2.38455 -34.77434,9.16858 -4.15629,1.7339 -14.94393,9.96818 -15.72466,12.00275 -1.36032,3.54494 -0.62446,10.11114 1.33151,11.88127 1.84087,1.66596 2.17977,1.66904 6.39762,0.0582 2.44957,-0.9355 5.94655,-3.24107 7.77106,-5.12348 3.73149,-3.84992 7.72874,-5.22093 16.26312,-5.57806 5.36389,-0.22445 6.05814,-0.003 8.35384,2.66602 2.15451,2.50477 2.42523,3.57412 1.94064,7.66571 -0.78839,6.65672 -2.90832,10.21374 -8.91873,14.9647 -2.86133,2.26175 -8.36344,7.63228 -12.2269,11.9345 -11.59446,12.91119 -11.97264,13.31105 -16.58162,17.53261 -13.19413,12.08504 -15.08414,18.27723 -6.85936,22.4732 4.51443,2.30309 10.77431,2.50644 17.24153,0.56009 3.47157,-1.04478 5.71915,-1.14544 8.90893,-0.39897 2.4082,0.56356 9.49198,0.74464 16.26604,0.41578 l 12,-0.58254 6,3.9276 c 7.01068,4.5892 8.44988,4.81935 11.1648,1.78544 l 0,3e-5 z"
       id="path2874"
       sodipodi:nodetypes="cssssssssssssssssssssssssssccccc" />
    <g
       id="g2880">
      <path
         sodipodi:nodetypes="ccsszzsczczzcz"
         id="path2876"
         d="m 663.28806,520.48604 c -1.59756,-8.42702 -7.5583,-13.25781 -14.58989,-19.4005 -8.41387,-7.61964 -10.62876,-8.50767 -21.05201,-8.44059 -12.62922,0.0813 -18.32431,1.98287 -35.17213,11.74401 -9.42358,5.45974 -10.67421,7.55814 -18.4386,18.71476 -7.76439,11.15662 -6.86509,48.42218 -6.10479,57.18032 0.76029,8.75813 16.10031,20.68243 22.2409,20.93115 10.75443,0.4356 20.70082,1.9028 32.68199,-1.9547 23.1457,-8.08164 7.1566,1.22759 21.83712,-10.19164 14.68052,-11.41923 25.44519,-32.21708 -1.85818,-24.89371 -32.98196,23.13442 -33.09542,17.42068 -38.92342,14.42969 -5.82799,-2.991 -8.56122,-12.08327 3.32527,-20.41105 11.88648,-8.32777 32.32909,-16.63806 47.26184,-22.60872 6.85336,-0.13088 10.38947,-6.67199 8.7919,-15.09902 z"
         style="fill:#000000" />
      <path
         id="path2878"
         d="m 610.13214,514.45595 c 0,0 -17.17259,0.50508 -19.1929,11.61675 -2.0203,11.11168 -1.01015,24.74874 12.12183,19.1929 13.13198,-5.55584 22.22336,-3.03045 27.7792,-16.16244 5.55584,-13.13198 -19.69798,-14.64721 -20.70813,-14.64721 z"
         style="fill:none;stroke:#000000;stroke-width:1px;stroke-linecap:butt;stroke-linejoin:miter;stroke-opacity:1" />
    </g>
    <path
       style="fill:#000000"
       d="m 607.87616,526.39549 c -5.35452,-18.84093 -31.62861,17.54968 -52.39149,36.28581 -20.76288,18.73612 1.96389,-34.71786 2.20766,-36.64286 4.13895,-32.68505 4.98421,-55.09707 2.30351,-61.07768 -3.01848,-6.73421 -13.05699,-9.17864 -26.34968,-6.41628 -14.4135,2.99527 -25.5,10.79342 -25.5,17.93647 0,1.8551 1.14559,5.58099 2.54576,8.27975 2.08819,4.02491 2.36224,5.38951 1.52475,7.59229 -1.1403,2.99921 -0.71772,2.88387 -11.20464,3.0584 -8.14396,0.13553 -9.90124,0.97374 -21.12663,10.07719 -4.48323,3.63576 -11.77452,14.89638 -14.68862,22.68502 -1.15089,3.07604 -0.47369,1.04628 -3.99335,7.31302 -3.51966,6.26674 6.23859,50.71703 2.94349,57.05307 -3.2951,6.33604 7.23866,7.1423 13.79974,8.5494 7.23901,1.5525 14.07609,-0.5629 21.0447,-6.5112 8.03223,-6.8562 9.53757,-6.9111 15.01946,-0.5483 4.61381,5.3552 9.08617,8.0088 13.49789,8.0088 5.51776,0 15.5744,-4.0979 21.09741,-8.597 11.23809,20.86192 64.65042,-48.11394 59.27004,-67.0459 z m -102.69482,23.70869 c -2.3387,-4.36991 -0.31596,-16.26465 3.131,-18.41186 2.5358,-1.57961 4.83487,0.90532 4.82824,5.21856 -0.0105,6.86338 -3.35075,15.12756 -6.11422,15.12756 -0.44541,0 -1.27567,-0.87042 -1.84502,-1.93426 z"
       id="path2884"
       sodipodi:nodetypes="czssssssssszzssssczcsssc" />
    <path
       sodipodi:nodetypes="cssssssssssszssssssssscc"
       id="path2886"
       d="m 457.47438,534.41692 c -1.37643,-2.10047 -1.95178,-5.43431 -2.32822,-13.49064 -0.46722,-9.99921 -0.70439,-10.98548 -3.61769,-15.04428 -1.71473,-2.38896 -5.50409,-6.03106 -8.4208,-8.09356 -4.67621,-3.30671 -5.99805,-3.75 -11.18196,-3.75 -6.55959,0 -9.26684,1.11841 -18.45874,7.62559 -3.39856,2.40593 -7.24482,4.37441 -8.54725,4.37441 -1.59146,0 -4.177,-1.91675 -7.88404,-5.84472 -3.03379,-3.21459 -6.77591,-6.16093 -8.31581,-6.54742 -5.31135,-1.33307 -13.2692,1.23741 -21.7872,7.03751 -9.75975,6.64564 -3.82378,18.1085 -7.93356,11.97312 3.34739,3.34739 -2.28346,44.10961 -2.87229,48.39186 -1.64703,11.97803 18.2741,2.1114 11.27513,16.69537 -6.99897,14.58397 -15.61484,12.78943 -13.89066,14.61683 7.25824,7.6929 14.83306,10.124 24.19725,7.7661 6.10961,-1.5385 10.30742,-4.4792 15.1639,-10.6232 6.19593,-7.8384 6.27165,-8.1227 6.29817,-23.6497 0.0256,-15.01464 1.06135,-22.14809 3.6274,-24.98354 2.16451,-2.39175 4.14201,-1.25229 5.45977,3.14601 0.88257,2.94576 0.74773,7.41583 -0.61604,20.42156 -1.45655,13.89047 -1.54301,17.68207 -0.52165,22.87527 1.64653,8.3719 2.43405,9.5755 7.82546,11.9604 9.38461,4.1513 20.76069,2.0081 30.12802,-5.6759 19.57735,-4.79266 23.78281,-42.547 12.40081,-59.18107 z"
       style="fill:#000000" />
    <path
       style="fill:#000000"
       d="m 329.54481,576.67273 c -6.38289,-10.71766 17.58283,-19.74945 19.06192,-33.63429 1.09917,-10.31838 -2.36983,-27.05213 1.10666,-26.0958 -4.52282,-8.77723 -6.46943,-23.13497 -12.64949,-23.13497 -5.44221,0 -6.91774,0.65424 -6.91774,3.06728 0,5.66487 -7.23459,8.1266 -12.26166,4.17231 -4.38732,-3.45107 -11.65759,-6.00882 -17.07976,-6.00882 -4.95003,0 -5.60065,0.33778 -14.92782,7.75 -5.36372,4.2625 -10.86204,9.3984 -12.21849,11.4131 -1.35645,2.01471 -3.87363,5.16471 -5.59374,7 -4.83031,5.15379 -6.11676,9.23559 -6.69273,21.23556 -0.4229,8.81064 4.1684,19.34278 -5.59089,21.8089 8.87431,-7.421 -1.4391,21.13709 2.36952,27.29959 4.88857,7.9099 18.16298,11.7254 27.07279,7.7816 2.43253,-1.0767 6.58765,-3.8321 9.2336,-6.1232 2.64595,-2.2911 5.28544,-4.1656 5.86552,-4.1656 0.58009,0 2.69022,1.7779 4.68918,3.9508 7.48619,8.1377 18.30658,10.2575 27.31952,5.352 2.72564,-1.4835 5.41025,-3.5466 5.96582,-4.5846 1.12563,-2.1033 -12.05415,-17.08386 -8.75221,-17.08386 z m -31.73198,-23.30096 c -0.36667,-0.36666 -0.66667,-3.00598 -0.66667,-5.86514 0,-5.79793 2.70921,-10.46819 6.07258,-10.46819 2.44578,0 2.59061,4.4038 0.38868,11.8185 -1.1123,3.74552 -2.03609,5.1815 -3.33333,5.1815 -0.98703,0 -2.0946,-0.3 -2.46126,-0.66667 z"
       id="path2888"
       sodipodi:nodetypes="cscssssssssssssssssscssssc" />
    <path
       sodipodi:nodetypes="cszzzcsssczz"
       id="path2890"
       d="m 197.44661,573.97539 c 2.14218,19.95242 4.576,22.6415 10.19955,25.1996 8.70765,3.961 33.12796,4.68704 32.42063,-10.64328 -0.70733,-15.33032 -17.16771,-8.57201 -11.78069,-23.45755 5.61619,-15.5188 16.5955,-52.87891 22.95772,-68.73151 6.36221,-15.8526 5.85117,-13.56441 -2.09766,-30.80421 -3.25152,-6.50304 -6.32123,-8.01911 -16,-7.90207 -8.93227,0.10802 -17.07651,2.31259 -26.21078,7.09502 -5.45494,2.85605 -7.0924,4.30188 -8.75,7.72603 -3.42515,7.07541 -3.19431,7.85116 6.42507,21.59252 6.29298,13.39318 0.50625,20.56406 -0.64641,36.59753 -1.15266,16.03347 -8.65961,23.3755 -6.51743,43.32792 z"
       style="fill:#000000" />
    <path
       sodipodi:nodetypes="ccssssssccssssz"
       id="path2894"
       d="m 105.90645,589.25926 c -12.242323,-12.25415 -5.964328,-25.83624 -5.22738,-40.60616 0.54129,-34.90047 8.87672,-59.56083 15.92409,-64.17845 5.5926,-3.6644 7.33474,-12.98537 3.57849,-19.14587 -3.81879,-6.26307 -8.12479,-7.45549 -29.063073,-8.0482 -18.80738,-0.53238 -29.5297,0.47074 -33.09398,3.09611 -0.891861,0.65692 -2.804361,2.93735 -4.250002,5.06762 -3.825794,5.63762 -3.543483,10.24216 0.992286,16.18434 1.991398,2.60888 4.241396,6.22889 4.999996,8.04448 2.305347,23.15195 -2.391545,46.12017 -4.576809,69.09657 -0.02415,0.67719 -2.95077,4.31267 -6.503596,8.07889 -10.435315,11.0619 -11.250676,16.1024 -3.790316,23.4313 8.171231,8.0273 14.860211,9.7859 37.607921,9.8875 9.43521,0.042 17.29709,-0.3795 18.921943,-1.015 1.52893,-0.5979 16.72276,2.36101 4.48043,-9.89313 z"
       style="fill:#000000" />
    <g
       id="g2898">
      <path
         id="path2903"
         style="fill:#000000"
         d="m 170.81708,545.22389 c 7.88556,8.08731 19.38732,21.90364 19.72643,32.80533 0.3391,10.90169 -11.62971,20.2176 -25.88454,22.8821 -21.92453,1.35133 -44.1344,-14.70832 -43.85647,-25.02648 0.83309,-5.93807 3.59618,-12.83886 6.0787,-8.55115 4.92538,8.50688 29.97595,24.3084 30.57043,10.40849 0.50743,-12.11711 -8.84701,-13.21668 -16.79198,-21.2148 -7.94497,-7.99813 -19.51359,-21.77737 -19.8527,-32.67906 -0.3391,-10.90169 11.62971,-20.2176 25.88454,-22.8821 21.92453,-1.35133 44.1344,14.70832 43.85647,25.02648 -0.83309,5.93807 -3.59618,12.83886 -6.0787,8.55115 -4.92538,-8.50688 -29.97595,-24.3084 -30.57043,-10.40849 -0.50743,12.11711 9.03268,13.00122 16.91825,21.08853 z"
         sodipodi:nodetypes="csccsczsccscz" />
    </g>
  </g>
</svg>
